<svg width="20" height="20" viewBox="0 0 20 20" fill="none" xmlns="http://www.w3.org/2000/svg">
<g clip-path="url(#clip0_2_2351)">
<path fill-rule="evenodd" clip-rule="evenodd" d="M0.186523 17.2594C0.665587 17.4689 1.15344 17.6635 1.64942 17.8423C4.21023 18.7656 6.98757 19.2711 9.88918 19.2711C12.7918 19.2711 15.5701 18.7652 18.1317 17.8413C18.6276 17.6624 19.1154 17.4678 19.5945 17.2582L18.8446 15.9347L17.8586 14.1945L17.041 12.7513L10.7874 1.71424L9.89083 0.131836L8.99425 1.71424L0.936446 15.9358L0.186523 17.2594ZM9.89083 3.29665L15.5556 13.2946C13.7757 13.8599 11.871 14.1661 9.89097 14.1661C7.91086 14.1661 6.00604 13.8598 4.22613 13.2945L9.89083 3.29665ZM9.89097 15.7997C7.61573 15.7997 5.43116 15.4309 3.39989 14.7528L2.40474 16.5092C4.73561 17.3251 7.25614 17.7711 9.88918 17.7711C12.5233 17.7711 15.0448 17.3248 17.3763 16.5082L16.3818 14.7529C14.3506 15.4309 12.1661 15.7997 9.89097 15.7997ZM11.5787 12.0002C12.16 12.0002 12.6313 11.5525 12.6313 11.0002C12.6313 10.4479 12.16 10.0002 11.5787 10.0002C10.9973 10.0002 10.526 10.4479 10.526 11.0002C10.526 11.5525 10.9973 12.0002 11.5787 12.0002ZM9.14366 12.0002C9.14366 12.5525 8.67238 13.0002 8.09103 13.0002C7.50967 13.0002 7.0384 12.5525 7.0384 12.0002C7.0384 11.4479 7.50967 11.0002 8.09103 11.0002C8.67238 11.0002 9.14366 11.4479 9.14366 12.0002ZM9.8162 9.00024C10.3976 9.00024 10.8689 8.55253 10.8689 8.00024C10.8689 7.44795 10.3976 7.00024 9.8162 7.00024C9.23485 7.00024 8.76357 7.44795 8.76357 8.00024C8.76357 8.55253 9.23485 9.00024 9.8162 9.00024Z" fill="#7A1D47"/>
</g>
<defs>
<clipPath id="clip0_2_2351">
<rect width="20" height="20" fill="white"/>
</clipPath>
</defs>
</svg>
