<svg width="118" height="40" viewBox="0 0 118 40" fill="none" xmlns="http://www.w3.org/2000/svg">
<path d="M7.61284 39.8729C7.30816 39.8729 7.01084 39.8688 6.70855 39.8617C6.08233 39.8532 5.45757 39.7962 4.83941 39.6912C4.263 39.5874 3.70461 39.3943 3.18267 39.1182C2.66551 38.8445 2.19382 38.4856 1.78567 38.0552C1.37161 37.6299 1.02688 37.1366 0.765156 36.5949C0.500545 36.0496 0.317419 35.4652 0.222156 34.8619C0.11928 34.2137 0.06362 33.5583 0.0556557 32.9012C0.0493157 32.6807 0.0410156 31.9464 0.0410156 31.9464V7.79024C0.0410156 7.79024 0.0498557 7.06723 0.0557057 6.85482C0.0633315 6.19883 0.118668 5.54441 0.221236 4.8972C0.316674 4.29229 0.499943 3.70617 0.764696 3.15915C1.02546 2.6178 1.36827 2.12415 1.77984 1.69732C2.19094 1.26643 2.66414 0.905643 3.18218 0.628121C3.70292 0.352981 4.26025 0.161241 4.8355 0.059325C5.45569 -0.0467441 6.08262 -0.10409 6.71101 -0.112232L7.61333 -0.125H110.382L111.295 -0.11172C111.918 -0.103982 112.539 -0.0471479 113.153 0.0583002C113.734 0.161495 114.298 0.354573 114.824 0.631185C115.862 1.19047 116.707 2.07532 117.239 3.1617C117.5 3.70495 117.68 4.28628 117.774 4.88597C117.878 5.53849 117.936 6.19806 117.948 6.85942C117.951 7.15556 117.951 7.47366 117.951 7.79024C117.959 8.18237 117.959 8.55561 117.959 8.93192V30.817C117.959 31.1969 117.959 31.5676 117.951 31.9413C117.951 32.2814 117.951 32.5929 117.947 32.9135C117.936 33.563 117.878 34.2108 117.776 34.8517C117.683 35.4593 117.501 36.0483 117.236 36.598C116.973 37.1338 116.63 37.6228 116.221 38.047C115.812 38.4797 115.34 38.8407 114.821 39.1162C114.296 39.3944 113.734 39.5882 113.153 39.6912C112.535 39.7967 111.91 39.8538 111.284 39.8617C110.991 39.8688 110.685 39.8729 110.387 39.8729L109.303 39.875L7.61284 39.8729Z" fill="black"/>
<path d="M23.937 20.3013C23.9477 19.4666 24.1694 18.6483 24.5814 17.9223C24.9935 17.1964 25.5824 16.5864 26.2935 16.1492C25.8418 15.5041 25.2458 14.9731 24.553 14.5986C23.8602 14.224 23.0896 14.0162 22.3024 13.9916C20.6231 13.8153 18.9952 14.9964 18.1395 14.9964C17.2672 14.9964 15.9497 14.0091 14.531 14.0383C13.6133 14.0679 12.7189 14.3348 11.9351 14.8128C11.1512 15.2909 10.5045 15.9638 10.058 16.7661C8.12404 20.1145 9.56663 25.0356 11.4192 27.7422C12.3461 29.0676 13.4294 30.548 14.8469 30.4955C16.2339 30.438 16.752 29.611 18.4263 29.611C20.085 29.611 20.5711 30.4955 22.0173 30.4621C23.5057 30.438 24.4434 29.1309 25.3378 27.793C26.0038 26.8486 26.5162 25.8049 26.8562 24.7005C25.9915 24.3347 25.2536 23.7226 24.7345 22.9403C24.2153 22.158 23.938 21.2402 23.937 20.3013Z" fill="white"/>
<path d="M21.2055 12.2113C22.0171 11.2371 22.4169 9.98494 22.3201 8.7207C21.0802 8.85092 19.935 9.44348 19.1125 10.3803C18.7103 10.838 18.4023 11.3704 18.2061 11.9472C18.0099 12.524 17.9292 13.1337 17.9688 13.7417C18.5889 13.7481 19.2024 13.6137 19.7631 13.3486C20.3237 13.0835 20.8169 12.6946 21.2055 12.2113Z" fill="white"/>
<path d="M41.4707 27.1397H36.7373L35.6006 30.4961H33.5957L38.0791 18.0781H40.1621L44.6455 30.4961H42.6064L41.4707 27.1397ZM37.2275 25.5908H40.9795L39.1299 20.1436H39.0782L37.2275 25.5908Z" fill="white"/>
<path d="M54.3282 25.9695C54.3282 28.7829 52.8223 30.5905 50.5498 30.5905C49.9742 30.6207 49.4017 30.4881 48.8979 30.2079C48.3941 29.9278 47.9794 29.5114 47.7012 29.0065H47.6582V33.4909H45.7998V21.4421H47.5987V22.948H47.6328C47.9238 22.4455 48.3455 22.0313 48.8532 21.7495C49.3608 21.4676 49.9353 21.3287 50.5157 21.3474C52.8135 21.3474 54.3282 23.1638 54.3282 25.9695ZM52.418 25.9695C52.418 24.1365 51.4707 22.9314 50.0254 22.9314C48.6055 22.9314 47.6504 24.1618 47.6504 25.9695C47.6504 27.7937 48.6055 29.0154 50.0254 29.0154C51.4707 29.0154 52.418 27.8191 52.418 25.9695Z" fill="white"/>
<path d="M64.293 25.9694C64.293 28.7829 62.7871 30.5905 60.5147 30.5905C59.939 30.6206 59.3665 30.488 58.8627 30.2079C58.3589 29.9278 57.9442 29.5114 57.666 29.0065H57.623V33.4909H55.7646V21.4421H57.5635V22.948H57.5976C57.8886 22.4455 58.3103 22.0313 58.818 21.7495C59.3256 21.4676 59.9001 21.3287 60.4805 21.3474C62.7783 21.3474 64.293 23.1638 64.293 25.9694ZM62.3828 25.9694C62.3828 24.1364 61.4356 22.9314 59.9903 22.9314C58.5703 22.9314 57.6153 24.1618 57.6153 25.9694C57.6153 27.7937 58.5703 29.0153 59.9903 29.0153C61.4356 29.0153 62.3828 27.8191 62.3828 25.9694Z" fill="white"/>
<path d="M70.8789 27.0362C71.0166 28.2676 72.2129 29.0762 73.8477 29.0762C75.4141 29.0762 76.541 28.2676 76.541 27.1572C76.541 26.1934 75.8614 25.6162 74.252 25.2207L72.6426 24.833C70.3623 24.2822 69.3037 23.2158 69.3037 21.4854C69.3037 19.3428 71.1709 17.8711 73.8223 17.8711C76.4463 17.8711 78.2451 19.3428 78.3057 21.4854H76.4297C76.3174 20.2461 75.293 19.4981 73.7959 19.4981C72.2988 19.4981 71.2744 20.2549 71.2744 21.3565C71.2744 22.2344 71.9287 22.751 73.5293 23.1465L74.8975 23.4824C77.4453 24.0849 78.5039 25.1084 78.5039 26.9248C78.5039 29.248 76.6533 30.7031 73.71 30.7031C70.9561 30.7031 69.0967 29.2822 68.9766 27.0361L70.8789 27.0362Z" fill="white"/>
<path d="M82.5146 19.2998V21.4424H84.2363V22.9141H82.5146V27.9053C82.5146 28.6807 82.8594 29.042 83.6162 29.042C83.8206 29.0384 84.0247 29.0241 84.2275 28.999V30.4619C83.8873 30.5255 83.5414 30.5543 83.1953 30.5478C81.3623 30.5478 80.6475 29.8593 80.6475 28.1035V22.9141H79.3311V21.4424H80.6474V19.2998H82.5146Z" fill="white"/>
<path d="M85.2334 25.9697C85.2334 23.1211 86.9111 21.3311 89.5273 21.3311C92.1523 21.3311 93.8223 23.1211 93.8223 25.9697C93.8223 28.8262 92.1611 30.6084 89.5273 30.6084C86.8945 30.6084 85.2334 28.8262 85.2334 25.9697ZM91.9287 25.9697C91.9287 24.0156 91.0332 22.8623 89.5273 22.8623C88.0215 22.8623 87.1269 24.0244 87.1269 25.9697C87.1269 27.9316 88.0215 29.0762 89.5273 29.0762C91.0332 29.0762 91.9287 27.9316 91.9287 25.9697Z" fill="white"/>
<path d="M95.3545 21.442H97.127V22.983H97.17C97.2899 22.5017 97.5718 22.0764 97.9684 21.7785C98.365 21.4806 98.8521 21.3284 99.3477 21.3473C99.5619 21.3465 99.7754 21.3698 99.9844 21.4166V23.1549C99.714 23.0723 99.432 23.0343 99.1494 23.0426C98.8794 23.0316 98.6103 23.0792 98.3604 23.1821C98.1106 23.285 97.886 23.4408 97.702 23.6386C97.518 23.8365 97.3791 24.0719 97.2946 24.3286C97.2102 24.5852 97.1823 24.8571 97.2129 25.1256V30.4957H95.3545L95.3545 21.442Z" fill="white"/>
<path d="M108.553 27.8369C108.303 29.4805 106.702 30.6084 104.654 30.6084C102.021 30.6084 100.386 28.8437 100.386 26.0127C100.386 23.1729 102.029 21.3311 104.576 21.3311C107.081 21.3311 108.656 23.0518 108.656 25.7969V26.4336H102.262V26.5459C102.232 26.8791 102.274 27.2148 102.384 27.5306C102.494 27.8464 102.67 28.1352 102.901 28.3778C103.131 28.6203 103.41 28.8111 103.72 28.9374C104.03 29.0637 104.363 29.1226 104.697 29.1103C105.136 29.1515 105.577 29.0498 105.954 28.8203C106.331 28.5909 106.623 28.246 106.788 27.8369L108.553 27.8369ZM102.271 25.1348H106.797C106.814 24.8352 106.768 24.5354 106.663 24.2541C106.559 23.9729 106.397 23.7164 106.189 23.5006C105.98 23.2849 105.729 23.1145 105.452 23.0003C105.174 22.8861 104.876 22.8305 104.576 22.8369C104.274 22.8351 103.974 22.8933 103.694 23.008C103.413 23.1227 103.159 23.2918 102.945 23.5054C102.73 23.7191 102.56 23.973 102.445 24.2527C102.329 24.5323 102.27 24.8321 102.271 25.1348Z" fill="white"/>
<path d="M36.9941 8.7304C37.3838 8.70244 37.7747 8.7613 38.1388 8.90274C38.5029 9.04417 38.8311 9.26465 39.0997 9.54828C39.3683 9.8319 39.5706 10.1716 39.692 10.5429C39.8134 10.9141 39.8509 11.3077 39.8018 11.6952C39.8018 13.6015 38.7715 14.6972 36.9941 14.6972H34.8389V8.7304H36.9941ZM35.7656 13.8534H36.8906C37.169 13.87 37.4476 13.8244 37.7062 13.7198C37.9647 13.6152 38.1967 13.4542 38.3852 13.2487C38.5737 13.0431 38.7139 12.7981 38.7958 12.5315C38.8777 12.2648 38.899 11.9833 38.8584 11.7074C38.8961 11.4326 38.8725 11.1528 38.7894 10.8881C38.7063 10.6235 38.5657 10.3805 38.3776 10.1765C38.1896 9.97261 37.9587 9.8128 37.7016 9.70856C37.4445 9.60433 37.1676 9.55824 36.8906 9.57361H35.7656V13.8534Z" fill="white"/>
<path d="M40.8489 12.4438C40.8206 12.1479 40.8545 11.8493 40.9483 11.5672C41.0421 11.2852 41.1939 11.0258 41.3938 10.8059C41.5938 10.5859 41.8375 10.4101 42.1093 10.2898C42.3812 10.1696 42.6752 10.1074 42.9724 10.1074C43.2697 10.1074 43.5637 10.1696 43.8356 10.2898C44.1074 10.4101 44.3511 10.5859 44.5511 10.8059C44.751 11.0258 44.9028 11.2852 44.9966 11.5672C45.0904 11.8493 45.1243 12.1479 45.096 12.4438C45.1248 12.74 45.0914 13.039 44.9978 13.3215C44.9042 13.6041 44.7525 13.8639 44.5525 14.0843C44.3525 14.3047 44.1086 14.4808 43.8365 14.6014C43.5644 14.7219 43.2701 14.7842 42.9724 14.7842C42.6748 14.7842 42.3805 14.7219 42.1084 14.6014C41.8362 14.4808 41.5924 14.3047 41.3924 14.0843C41.1924 13.8639 41.0407 13.6041 40.9471 13.3215C40.8535 13.039 40.8201 12.74 40.8489 12.4438ZM44.1819 12.4438C44.1819 11.4677 43.7434 10.8969 42.9739 10.8969C42.2015 10.8969 41.7669 11.4677 41.7669 12.4438C41.7669 13.4277 42.2015 13.9941 42.9739 13.9941C43.7435 13.9941 44.1819 13.4238 44.1819 12.4438Z" fill="white"/>
<path d="M50.7412 14.6973H49.8193L48.8887 11.3809H48.8184L47.8916 14.6973H46.9785L45.7373 10.1943H46.6387L47.4453 13.6303H47.5117L48.4375 10.1943H49.29L50.2158 13.6303H50.2861L51.0889 10.1943H51.9775L50.7412 14.6973Z" fill="white"/>
<path d="M53.0215 10.1939H53.877V10.9092H53.9434C54.056 10.6523 54.246 10.4369 54.4869 10.2931C54.7278 10.1493 55.0075 10.0842 55.2871 10.107C55.5062 10.0905 55.7262 10.1235 55.9308 10.2036C56.1354 10.2837 56.3194 10.4088 56.469 10.5697C56.6187 10.7305 56.7303 10.923 56.7955 11.1328C56.8607 11.3426 56.8779 11.5644 56.8457 11.7818V14.6968H55.957V12.0049C55.957 11.2813 55.6426 10.9214 54.9854 10.9214C54.8366 10.9145 54.6881 10.9398 54.55 10.9957C54.412 11.0515 54.2876 11.1365 54.1855 11.2449C54.0834 11.3533 54.0059 11.4825 53.9584 11.6236C53.9108 11.7647 53.8944 11.9145 53.9102 12.0625V14.6968H53.0215L53.0215 10.1939Z" fill="white"/>
<path d="M58.2617 8.43652H59.1504V14.6973H58.2617V8.43652Z" fill="white"/>
<path d="M60.386 12.4439C60.3577 12.1479 60.3916 11.8494 60.4854 11.5673C60.5793 11.2852 60.7311 11.0259 60.9311 10.8059C61.131 10.5859 61.3747 10.4101 61.6466 10.2898C61.9185 10.1696 62.2125 10.1074 62.5098 10.1074C62.8071 10.1074 63.1011 10.1696 63.3729 10.2898C63.6448 10.4101 63.8885 10.5859 64.0885 10.8059C64.2885 11.0259 64.4402 11.2852 64.5341 11.5673C64.628 11.8494 64.6618 12.1479 64.6336 12.4439C64.6624 12.7401 64.6289 13.0391 64.5353 13.3216C64.4416 13.6042 64.29 13.864 64.0899 14.0844C63.8899 14.3048 63.646 14.4809 63.3739 14.6014C63.1017 14.722 62.8074 14.7842 62.5098 14.7842C62.2121 14.7842 61.9178 14.722 61.6457 14.6014C61.3735 14.4809 61.1296 14.3048 60.9296 14.0844C60.7296 13.864 60.5779 13.6042 60.4843 13.3216C60.3907 13.0391 60.3572 12.7401 60.386 12.4439ZM63.719 12.4439C63.719 11.4678 63.2805 10.897 62.511 10.897C61.7385 10.897 61.304 11.4678 61.304 12.4439C61.304 13.4278 61.7386 13.9942 62.511 13.9942C63.2805 13.9942 63.719 13.4239 63.719 12.4439Z" fill="white"/>
<path d="M65.5684 13.4238C65.5684 12.6133 66.1719 12.146 67.2432 12.0796L68.4629 12.0093V11.6206C68.4629 11.145 68.1484 10.8765 67.541 10.8765C67.0449 10.8765 66.7012 11.0586 66.6025 11.377H65.7422C65.833 10.6035 66.5606 10.1074 67.582 10.1074C68.7109 10.1074 69.3477 10.6694 69.3477 11.6206V14.6973H68.4922V14.0645H68.4219C68.2792 14.2914 68.0788 14.4765 67.8411 14.6007C67.6035 14.7249 67.3372 14.7838 67.0693 14.7715C66.8803 14.7911 66.6892 14.7709 66.5085 14.7122C66.3277 14.6536 66.1613 14.5576 66.0199 14.4307C65.8784 14.3037 65.7652 14.1485 65.6874 13.9751C65.6097 13.8017 65.5691 13.6139 65.5684 13.4238ZM68.4629 13.0391V12.6626L67.3633 12.7329C66.7432 12.7744 66.4619 12.9853 66.4619 13.3823C66.4619 13.7876 66.8135 14.0234 67.2969 14.0234C67.4386 14.0378 67.5816 14.0235 67.7176 13.9814C67.8536 13.9393 67.9798 13.8703 68.0886 13.7784C68.1974 13.6866 68.2866 13.5738 68.3509 13.4468C68.4152 13.3198 68.4533 13.1811 68.4629 13.0391Z" fill="white"/>
<path d="M70.5156 12.4439C70.5156 11.021 71.2471 10.1196 72.3848 10.1196C72.6662 10.1067 72.9455 10.1741 73.19 10.314C73.4345 10.4539 73.6342 10.6605 73.7656 10.9096H73.832V8.43652H74.7207V14.6973H73.8691V13.9858H73.7988C73.6572 14.2333 73.4506 14.4374 73.2014 14.5758C72.9521 14.7143 72.6697 14.782 72.3848 14.7715C71.2393 14.7715 70.5156 13.8701 70.5156 12.4439ZM71.4336 12.4439C71.4336 13.3989 71.8838 13.9737 72.6368 13.9737C73.3858 13.9737 73.8487 13.3907 73.8487 12.4478C73.8487 11.5093 73.3809 10.918 72.6368 10.918C71.8887 10.918 71.4336 11.4966 71.4336 12.4439Z" fill="white"/>
<path d="M78.3977 12.4438C78.3694 12.1479 78.4033 11.8493 78.4971 11.5672C78.591 11.2852 78.7427 11.0258 78.9427 10.8059C79.1426 10.5859 79.3863 10.4101 79.6582 10.2898C79.93 10.1696 80.224 10.1074 80.5213 10.1074C80.8185 10.1074 81.1125 10.1696 81.3844 10.2898C81.6562 10.4101 81.8999 10.5859 82.0999 10.8059C82.2998 11.0258 82.4516 11.2852 82.5454 11.5672C82.6393 11.8493 82.6731 12.1479 82.6448 12.4438C82.6737 12.74 82.6402 13.039 82.5466 13.3215C82.453 13.6041 82.3014 13.8639 82.1014 14.0843C81.9014 14.3047 81.6575 14.4808 81.3854 14.6014C81.1132 14.7219 80.8189 14.7842 80.5213 14.7842C80.2237 14.7842 79.9293 14.7219 79.6572 14.6014C79.3851 14.4808 79.1412 14.3047 78.9412 14.0843C78.7412 13.8639 78.5895 13.6041 78.4959 13.3215C78.4023 13.039 78.3689 12.74 78.3977 12.4438ZM81.7307 12.4438C81.7307 11.4677 81.2923 10.8969 80.5227 10.8969C79.7503 10.8969 79.3157 11.4677 79.3157 12.4438C79.3157 13.4277 79.7503 13.9941 80.5227 13.9941C81.2923 13.9941 81.7307 13.4238 81.7307 12.4438Z" fill="white"/>
<path d="M83.8369 10.1939H84.6924V10.9092H84.7588C84.8715 10.6523 85.0615 10.4369 85.3023 10.2931C85.5432 10.1493 85.8229 10.0842 86.1025 10.107C86.3216 10.0905 86.5416 10.1235 86.7462 10.2036C86.9508 10.2837 87.1348 10.4088 87.2845 10.5697C87.4342 10.7305 87.5457 10.923 87.6109 11.1328C87.6761 11.3426 87.6933 11.5644 87.6611 11.7818V14.6968H86.7725V12.0049C86.7725 11.2813 86.458 10.9214 85.8008 10.9214C85.652 10.9145 85.5035 10.9398 85.3655 10.9957C85.2274 11.0515 85.1031 11.1365 85.0009 11.2449C84.8988 11.3533 84.8213 11.4825 84.7738 11.6236C84.7263 11.7647 84.7098 11.9145 84.7256 12.0625V14.6968H83.8369V10.1939Z" fill="white"/>
<path d="M92.6826 9.07324V10.2148H93.6582V10.9634H92.6826V13.2788C92.6826 13.7505 92.877 13.957 93.3193 13.957C93.4326 13.9567 93.5457 13.9498 93.6582 13.9365V14.6768C93.4986 14.7053 93.3369 14.7205 93.1748 14.7222C92.1865 14.7222 91.793 14.3745 91.793 13.5063V10.9633H91.0781V10.2148H91.793V9.07324H92.6826Z" fill="white"/>
<path d="M94.873 8.43652H95.7539V10.918H95.8242C95.9423 10.6587 96.1376 10.4421 96.3833 10.2977C96.629 10.1534 96.9132 10.0883 97.1972 10.1113C97.4152 10.0995 97.6331 10.1359 97.8353 10.2179C98.0376 10.2999 98.2193 10.4256 98.3674 10.586C98.5155 10.7463 98.6265 10.9373 98.6922 11.1455C98.758 11.3536 98.7771 11.5737 98.748 11.79V14.6973H97.8584V12.0093C97.8584 11.29 97.5234 10.9258 96.8955 10.9258C96.7428 10.9132 96.5892 10.9342 96.4454 10.9873C96.3016 11.0404 96.1712 11.1242 96.0632 11.2329C95.9552 11.3417 95.8723 11.4727 95.8202 11.6168C95.7681 11.761 95.7482 11.9147 95.7618 12.0674V14.6973H94.8731L94.873 8.43652Z" fill="white"/>
<path d="M103.929 13.4815C103.809 13.8931 103.547 14.249 103.19 14.4872C102.834 14.7253 102.405 14.8305 101.978 14.7842C101.682 14.7921 101.387 14.7353 101.114 14.6177C100.842 14.5002 100.598 14.3248 100.4 14.1036C100.202 13.8825 100.055 13.6209 99.9681 13.3371C99.8814 13.0533 99.8575 12.754 99.8981 12.46C99.8586 12.1652 99.8829 11.8652 99.9694 11.5805C100.056 11.2959 100.203 11.0331 100.399 10.81C100.596 10.587 100.839 10.4088 101.11 10.2876C101.382 10.1664 101.677 10.105 101.974 10.1075C103.227 10.1075 103.983 10.9635 103.983 12.3775V12.6876H100.803V12.7374C100.789 12.9026 100.81 13.069 100.864 13.2257C100.918 13.3825 101.005 13.5262 101.118 13.6476C101.231 13.7691 101.368 13.8656 101.52 13.931C101.672 13.9964 101.837 14.0292 102.003 14.0274C102.215 14.0529 102.431 14.0146 102.621 13.9174C102.812 13.8202 102.97 13.6685 103.074 13.4815L103.929 13.4815ZM100.803 12.0303H103.078C103.089 11.8792 103.068 11.7274 103.017 11.5847C102.967 11.442 102.886 11.3115 102.782 11.2016C102.677 11.0918 102.551 11.005 102.411 10.9468C102.271 10.8886 102.121 10.8604 101.969 10.8638C101.816 10.8619 101.663 10.8908 101.521 10.9487C101.378 11.0067 101.249 11.0925 101.14 11.2012C101.032 11.3099 100.946 11.4393 100.888 11.5817C100.83 11.7241 100.801 11.8766 100.803 12.0303Z" fill="white"/>
</svg>
