<svg width="136" height="40" viewBox="0 0 136 40" fill="none" xmlns="http://www.w3.org/2000/svg">
<g clip-path="url(#clip0_4_7332)">
<path d="M130.5 0H5.5C2.73858 0 0.5 2.23858 0.5 5V35C0.5 37.7614 2.73858 40 5.5 40H130.5C133.261 40 135.5 37.7614 135.5 35V5C135.5 2.23858 133.261 0 130.5 0Z" fill="black"/>
<path d="M47.9201 10.2405C47.9371 10.6073 47.8794 10.9737 47.7505 11.3175C47.6215 11.6613 47.4241 11.9753 47.1701 12.2405C46.8865 12.5351 46.544 12.7666 46.165 12.92C45.7859 13.0733 45.3788 13.1451 44.9701 13.1305C44.3501 13.1256 43.7453 12.9379 43.2315 12.5909C42.7177 12.2438 42.3178 11.7528 42.0818 11.1794C41.8458 10.606 41.7843 9.97573 41.905 9.36755C42.0257 8.75937 42.3231 8.20032 42.7601 7.76046C43.0473 7.46725 43.3916 7.23608 43.7718 7.08128C44.1519 6.92647 44.5598 6.85132 44.9701 6.86046C45.3929 6.85905 45.8115 6.94413 46.2001 7.11046C46.562 7.25642 46.8841 7.48602 47.1401 7.78046L46.6101 8.31046C46.4105 8.07306 46.1585 7.88532 45.8738 7.7621C45.5892 7.63888 45.2798 7.58354 44.9701 7.60046C44.6578 7.59893 44.3483 7.66049 44.0603 7.78145C43.7723 7.90241 43.5117 8.08028 43.2942 8.3044C43.0766 8.52852 42.9065 8.79426 42.7941 9.08571C42.6817 9.37715 42.6293 9.68829 42.6401 10.0005C42.6336 10.4666 42.7652 10.9243 43.0184 11.3157C43.2717 11.7071 43.6352 12.0147 44.063 12.1998C44.4909 12.3848 44.964 12.439 45.4227 12.3555C45.8813 12.272 46.3049 12.0545 46.6401 11.7305C46.9478 11.397 47.1253 10.964 47.1401 10.5105H44.9701V9.79046H47.8801C47.9068 9.93898 47.9202 10.0896 47.9201 10.2405ZM52.5001 7.74046H49.8001V9.64046H52.2601V10.3605H49.8001V12.2605H52.5001V13.0005H49.0001V7.00046H52.5001V7.74046ZM55.7801 13.0005H55.0101V7.74046H53.3301V7.00046H57.5001V7.74046H55.7801V13.0005ZM60.4401 13.0005V7.00046H61.2101V13.0005H60.4401ZM64.6301 13.0005H63.8601V7.74046H62.1801V7.00046H66.3001V7.74046H64.6301V13.0005ZM74.1101 12.2205C73.5255 12.8018 72.7346 13.1282 71.9101 13.1282C71.0857 13.1282 70.2947 12.8018 69.7101 12.2205C69.1419 11.619 68.8253 10.8229 68.8253 9.99546C68.8253 9.16802 69.1419 8.37194 69.7101 7.77046C69.9983 7.48021 70.341 7.24984 70.7186 7.09263C71.0962 6.93543 71.5011 6.85449 71.9101 6.85449C72.3191 6.85449 72.7241 6.93543 73.1016 7.09263C73.4792 7.24984 73.822 7.48021 74.1101 7.77046C74.6806 8.37079 74.9987 9.16731 74.9987 9.99546C74.9987 10.8237 74.6806 11.6202 74.1101 12.2205ZM70.2801 11.7205C70.713 12.1516 71.2991 12.3937 71.9101 12.3937C72.5211 12.3937 73.1072 12.1516 73.5401 11.7205C73.9674 11.2495 74.204 10.6364 74.204 10.0005C74.204 9.36457 73.9674 8.75144 73.5401 8.28046C73.1072 7.84934 72.5211 7.60729 71.9101 7.60729C71.2991 7.60729 70.713 7.84934 70.2801 8.28046C69.8529 8.75144 69.6162 9.36457 69.6162 10.0005C69.6162 10.6364 69.8529 11.2495 70.2801 11.7205ZM76.0801 13.0005V7.00046H77.0201L79.9401 11.6705V7.00046H80.7101V13.0005H79.9101L76.8601 8.11046V13.0005H76.0801Z" fill="white" stroke="white" stroke-width="0.2" stroke-miterlimit="10"/>
<path d="M68.64 21.7501C67.8003 21.754 66.9806 22.0067 66.2843 22.4761C65.588 22.9454 65.0464 23.6106 64.7278 24.3875C64.4092 25.1644 64.3279 26.0183 64.4941 26.8414C64.6604 27.6645 65.0667 28.4199 65.6619 29.0123C66.257 29.6047 67.0143 30.0075 67.8382 30.1698C68.6621 30.3322 69.5156 30.2469 70.291 29.9246C71.0664 29.6024 71.729 29.0576 72.1951 28.3592C72.6612 27.6607 72.91 26.8398 72.91 26.0001C72.9182 25.438 72.8131 24.8801 72.6012 24.3594C72.3892 23.8388 72.0747 23.3661 71.6763 22.9696C71.2778 22.5731 70.8037 22.2607 70.2821 22.0512C69.7605 21.8417 69.202 21.7393 68.64 21.7501ZM68.64 28.5801C68.1236 28.6162 67.6082 28.4961 67.161 28.2355C66.7137 27.9748 66.3552 27.5856 66.132 27.1185C65.9089 26.6514 65.8314 26.128 65.9097 25.6162C65.988 25.1045 66.2184 24.6282 66.571 24.2491C66.9236 23.8701 67.382 23.6059 67.8868 23.4909C68.3915 23.3759 68.9192 23.4153 69.4012 23.6042C69.8832 23.793 70.2973 24.1225 70.5895 24.5498C70.8818 24.9771 71.0387 25.4824 71.04 26.0001C71.0561 26.3281 71.0064 26.656 70.8937 26.9645C70.7811 27.273 70.6078 27.5558 70.3841 27.7963C70.1605 28.0367 69.8909 28.23 69.5914 28.3646C69.2918 28.4992 68.9683 28.5725 68.64 28.5801ZM59.33 21.7501C58.4899 21.7521 57.6692 22.003 56.9716 22.4712C56.274 22.9394 55.7308 23.6038 55.4107 24.3806C55.0905 25.1574 55.0078 26.0116 55.1729 26.8353C55.338 27.6591 55.7436 28.4154 56.3383 29.0088C56.9331 29.6022 57.6904 30.006 58.5145 30.1692C59.3387 30.3323 60.1927 30.2476 60.9687 29.9256C61.7447 29.6037 62.4079 29.0589 62.8744 28.3602C63.341 27.6615 63.59 26.8402 63.59 26.0001C63.5982 25.438 63.4931 24.8801 63.2812 24.3594C63.0692 23.8388 62.7547 23.3661 62.3563 22.9696C61.9578 22.5731 61.4837 22.2607 60.9621 22.0512C60.4405 21.8417 59.882 21.7393 59.32 21.7501H59.33ZM59.33 28.5801C58.8133 28.6182 58.2971 28.5 57.8486 28.2407C57.4001 27.9813 57.0401 27.593 56.8154 27.1262C56.5906 26.6594 56.5117 26.1357 56.5887 25.6234C56.6658 25.1111 56.8952 24.6339 57.2473 24.2538C57.5994 23.8737 58.0577 23.6085 58.5627 23.4925C59.0676 23.3766 59.5958 23.4154 60.0784 23.6038C60.561 23.7922 60.9757 24.1216 61.2685 24.549C61.5613 24.9764 61.7186 25.482 61.72 26.0001C61.7361 26.3281 61.6864 26.656 61.5737 26.9645C61.4611 27.273 61.2878 27.5558 61.0641 27.7963C60.8405 28.0367 60.5709 28.23 60.2714 28.3646C59.9718 28.4992 59.6483 28.5725 59.32 28.5801H59.33ZM48.24 23.0601V24.8601H52.56C52.4923 25.7079 52.1399 26.5079 51.56 27.1301C51.1278 27.5703 50.6082 27.9152 50.0347 28.1426C49.4612 28.3699 48.8464 28.4747 48.23 28.4501C46.957 28.4501 45.7361 27.9444 44.8359 27.0442C43.9357 26.144 43.43 24.9231 43.43 23.6501C43.43 22.3771 43.9357 21.1562 44.8359 20.256C45.7361 19.3558 46.957 18.8501 48.23 18.8501C49.4478 18.8302 50.6238 19.2941 51.5 20.1401L52.77 18.8701C52.1785 18.2711 51.4728 17.797 50.6946 17.4758C49.9165 17.1545 49.0818 16.9928 48.24 17.0001C47.351 16.9655 46.4642 17.1107 45.6326 17.4271C44.8011 17.7434 44.042 18.2244 43.4008 18.8411C42.7596 19.4578 42.2494 20.1977 41.901 21.0163C41.5526 21.8349 41.373 22.7154 41.373 23.6051C41.373 24.4948 41.5526 25.3753 41.901 26.1939C42.2494 27.0125 42.7596 27.7523 43.4008 28.3691C44.042 28.9858 44.8011 29.4668 45.6326 29.7831C46.4642 30.0995 47.351 30.2447 48.24 30.2101C49.096 30.2488 49.9503 30.1037 50.7454 29.7846C51.5406 29.4655 52.2582 28.9797 52.85 28.3601C53.8977 27.209 54.4571 25.6959 54.41 24.1401C54.4132 23.7611 54.3797 23.3826 54.31 23.0101L48.24 23.0601ZM93.55 24.4601C93.2892 23.6928 92.8015 23.0229 92.1515 22.5389C91.5015 22.055 90.7198 21.7799 89.91 21.7501C89.363 21.749 88.8216 21.8602 88.3192 22.0766C87.8169 22.2931 87.3643 22.6103 86.9894 23.0086C86.6145 23.407 86.3253 23.8779 86.1396 24.3925C85.954 24.907 85.8759 25.4542 85.91 26.0001C85.8979 26.559 85.9985 27.1146 86.2059 27.6338C86.4133 28.1529 86.7232 28.625 87.1171 29.0217C87.5111 29.4184 87.9808 29.7316 88.4985 29.9427C89.0161 30.1537 89.571 30.2583 90.13 30.2501C90.8295 30.2539 91.519 30.0841 92.1368 29.756C92.7547 29.4279 93.2814 28.9517 93.67 28.3701L92.22 27.3701C92.0036 27.7309 91.6972 28.0293 91.3309 28.2361C90.9645 28.443 90.5507 28.5512 90.13 28.5501C89.6968 28.5666 89.2687 28.4524 88.9013 28.2223C88.534 27.9923 88.2443 27.657 88.07 27.2601L93.76 24.9101L93.55 24.4601ZM87.75 25.8801C87.7297 25.5708 87.7714 25.2605 87.8725 24.9675C87.9737 24.6745 88.1322 24.4046 88.339 24.1737C88.5457 23.9427 88.7965 23.7554 89.0765 23.6225C89.3566 23.4897 89.6604 23.4141 89.97 23.4001C90.2926 23.3788 90.6143 23.4528 90.8952 23.6128C91.1761 23.7728 91.4039 24.0118 91.55 24.3001L87.75 25.8801ZM83.13 30.0001H85V17.5001H83.13V30.0001ZM80.07 22.7001H80C79.7182 22.385 79.3729 22.133 78.9869 21.9607C78.6009 21.7883 78.1828 21.6995 77.76 21.7001C76.6672 21.7531 75.6367 22.2245 74.882 23.0167C74.1273 23.8088 73.7063 24.861 73.7063 25.9551C73.7063 27.0492 74.1273 28.1014 74.882 28.8935C75.6367 29.6857 76.6672 30.1571 77.76 30.2101C78.1838 30.2172 78.6039 30.1314 78.991 29.9586C79.378 29.7858 79.7224 29.5303 80 29.2101H80.06V29.8201C80.06 31.4501 79.19 32.3201 77.79 32.3201C77.3237 32.3092 76.8712 32.1598 76.4901 31.8909C76.1091 31.622 75.8166 31.2457 75.65 30.8101L74.02 31.4901C74.3268 32.2365 74.8496 32.8741 75.5213 33.3213C76.1931 33.7686 76.9831 34.0049 77.79 34.0001C79.98 34.0001 81.79 32.7101 81.79 29.5701V22.0001H80.07V22.7001ZM77.93 28.5801C77.285 28.5232 76.6846 28.2268 76.2473 27.7493C75.81 27.2717 75.5674 26.6476 75.5674 26.0001C75.5674 25.3525 75.81 24.7285 76.2473 24.2509C76.6846 23.7734 77.285 23.4769 77.93 23.4201C78.2498 23.4365 78.5631 23.5168 78.8515 23.6561C79.1398 23.7955 79.3973 23.9912 79.6089 24.2316C79.8204 24.472 79.9817 24.7524 80.0832 25.0561C80.1847 25.3598 80.2244 25.6808 80.2 26.0001C80.2273 26.3208 80.1893 26.6437 80.0882 26.9492C79.9871 27.2548 79.8251 27.5367 79.612 27.7779C79.3988 28.0191 79.139 28.2145 78.8482 28.3524C78.5574 28.4903 78.2416 28.5677 77.92 28.5801H77.93ZM102.31 17.5001H97.84V30.0001H99.71V25.2601H102.32C102.853 25.2984 103.388 25.2265 103.892 25.0488C104.396 24.8712 104.858 24.5916 105.249 24.2276C105.64 23.8636 105.952 23.4228 106.165 22.9329C106.379 22.443 106.489 21.9144 106.489 21.3801C106.489 20.8458 106.379 20.3172 106.165 19.8273C105.952 19.3374 105.64 18.8966 105.249 18.5326C104.858 18.1686 104.396 17.889 103.892 17.7114C103.388 17.5337 102.853 17.4618 102.32 17.5001H102.31ZM102.31 23.5001H99.7V19.2401H102.35C102.919 19.2401 103.464 19.4661 103.867 19.8684C104.269 20.2706 104.495 20.8162 104.495 21.3851C104.495 21.954 104.269 22.4996 103.867 22.9018C103.464 23.3041 102.919 23.5301 102.35 23.5301L102.31 23.5001ZM113.84 21.7001C113.159 21.6594 112.481 21.8185 111.89 22.1578C111.298 22.4971 110.819 23.0019 110.51 23.6101L112.17 24.3001C112.334 23.9984 112.582 23.7509 112.883 23.5875C113.185 23.4242 113.528 23.3521 113.87 23.3801C114.107 23.3524 114.348 23.3722 114.578 23.4384C114.807 23.5046 115.021 23.6159 115.208 23.7658C115.394 23.9157 115.548 24.1011 115.662 24.3113C115.776 24.5215 115.846 24.7523 115.87 24.9901V25.1201C115.269 24.8021 114.6 24.6372 113.92 24.6401C112.13 24.6401 110.32 25.6401 110.32 27.4501C110.338 27.836 110.433 28.2145 110.599 28.5631C110.765 28.9118 111 29.2235 111.289 29.4799C111.578 29.7363 111.916 29.9321 112.282 30.0558C112.648 30.1795 113.035 30.2286 113.42 30.2001C113.891 30.2339 114.362 30.1403 114.785 29.9292C115.207 29.7181 115.565 29.3971 115.82 29.0001H115.88V30.0001H117.68V25.1901C117.68 23.0001 116.02 21.7301 113.89 21.7301L113.84 21.7001ZM113.61 28.5501C113 28.5501 112.15 28.2401 112.15 27.4901C112.15 26.4901 113.21 26.1601 114.15 26.1601C114.744 26.1454 115.331 26.2905 115.85 26.5801C115.787 27.1215 115.531 27.6221 115.129 27.9896C114.727 28.3571 114.205 28.5668 113.66 28.5801L113.61 28.5501ZM124.24 22.0001L122.1 27.4201H122.04L119.82 22.0001H117.82L121.15 29.5801L119.25 33.7901H121.2L126.32 22.0001H124.24ZM107.43 30.0001H109.3V17.5001H107.43V30.0001Z" fill="white"/>
<path d="M10.9402 7.53973C10.6143 7.93084 10.4497 8.43153 10.4801 8.93973V31.0597C10.4497 31.5679 10.6143 32.0686 10.9402 32.4597L11.0102 32.5297L23.4002 20.1497V19.8597L11.0102 7.46973L10.9402 7.53973Z" fill="url(#paint0_linear_4_7332)"/>
<path d="M27.5004 24.2797L23.4004 20.1497V19.8597L27.5004 15.7197L27.5904 15.7697L32.5004 18.5597C33.9004 19.3497 33.9004 20.6497 32.5004 21.4497L27.6104 24.2297L27.5004 24.2797Z" fill="url(#paint1_linear_4_7332)"/>
<path d="M27.6204 24.22L23.4004 20L10.9404 32.46C11.2258 32.7109 11.5898 32.8541 11.9696 32.8651C12.3494 32.876 12.7211 32.754 13.0204 32.52L27.6304 24.22" fill="url(#paint2_linear_4_7332)"/>
<path d="M27.6197 15.7796L13.0097 7.47956C12.7103 7.24558 12.3387 7.12351 11.9589 7.13447C11.5791 7.14543 11.2151 7.28871 10.9297 7.53956L23.3997 19.9996L27.6197 15.7796Z" fill="url(#paint3_linear_4_7332)"/>
<path opacity="0.2" d="M27.5004 24.1299L13.0104 32.3799C12.7217 32.5958 12.3709 32.7124 12.0104 32.7124C11.6499 32.7124 11.2991 32.5958 11.0104 32.3799L10.9404 32.4499L11.0104 32.5199C11.2985 32.7373 11.6495 32.8549 12.0104 32.8549C12.3713 32.8549 12.7223 32.7373 13.0104 32.5199L27.6204 24.2199L27.5004 24.1299Z" fill="black"/>
<path opacity="0.12" d="M10.9402 32.32C10.6143 31.9289 10.4497 31.4282 10.4801 30.92V31.07C10.4497 31.5782 10.6143 32.0789 10.9402 32.47L11.0102 32.4L10.9402 32.32ZM32.5002 21.3L27.5002 24.13L27.5902 24.22L32.5002 21.44C32.7788 21.3091 33.0179 21.1071 33.1935 20.8543C33.3691 20.6014 33.4749 20.3068 33.5002 20C33.444 20.2787 33.3246 20.5408 33.1512 20.7662C32.9779 20.9915 32.7551 21.1742 32.5002 21.3Z" fill="black"/>
<path opacity="0.25" d="M13.0097 7.62043L32.4997 18.7004C32.7547 18.8262 32.9774 19.0089 33.1507 19.2342C33.3241 19.4596 33.4435 19.7217 33.4997 20.0004C33.4744 19.6936 33.3686 19.399 33.193 19.1461C33.0175 18.8933 32.7783 18.6913 32.4997 18.5604L13.0097 7.48043C11.6097 6.69043 10.4697 7.35043 10.4697 8.95043V9.10043C10.4997 7.49043 11.6197 6.83043 13.0097 7.62043Z" fill="white"/>
</g>
<defs>
<linearGradient id="paint0_linear_4_7332" x1="22.3002" y1="8.70973" x2="5.52014" y2="25.4897" gradientUnits="userSpaceOnUse">
<stop stop-color="#00A0FF"/>
<stop offset="0.01" stop-color="#00A1FF"/>
<stop offset="0.26" stop-color="#00BEFF"/>
<stop offset="0.51" stop-color="#00D2FF"/>
<stop offset="0.76" stop-color="#00DFFF"/>
<stop offset="1" stop-color="#00E3FF"/>
</linearGradient>
<linearGradient id="paint1_linear_4_7332" x1="34.3304" y1="19.9997" x2="10.1404" y2="19.9997" gradientUnits="userSpaceOnUse">
<stop stop-color="#FFE000"/>
<stop offset="0.41" stop-color="#FFBD00"/>
<stop offset="0.78" stop-color="#FFA500"/>
<stop offset="1" stop-color="#FF9C00"/>
</linearGradient>
<linearGradient id="paint2_linear_4_7332" x1="25.3304" y1="22.3" x2="2.57043" y2="45.05" gradientUnits="userSpaceOnUse">
<stop stop-color="#FF3A44"/>
<stop offset="1" stop-color="#C31162"/>
</linearGradient>
<linearGradient id="paint3_linear_4_7332" x1="7.79968" y1="0.179561" x2="17.9597" y2="10.3396" gradientUnits="userSpaceOnUse">
<stop stop-color="#32A071"/>
<stop offset="0.07" stop-color="#2DA771"/>
<stop offset="0.48" stop-color="#15CF74"/>
<stop offset="0.8" stop-color="#06E775"/>
<stop offset="1" stop-color="#00F076"/>
</linearGradient>
<clipPath id="clip0_4_7332">
<rect width="135" height="40" fill="white" transform="translate(0.5)"/>
</clipPath>
</defs>
</svg>
